<svg xmlns="http://www.w3.org/2000/svg" viewBox="0 0 2560 600"><path fill="#4ccb70" d="M714,100H657.55a50,50,0,0,1-45.62-69.46A49.95,49.95,0,0,1,657.64,0H382a50,50,0,0,1,19.46,96.07A49.55,49.55,0,0,1,382,100H83a50,50,0,0,0,0,100H183a50,50,0,0,1,.34,100H135a50,50,0,0,0,0,100H282a50,50,0,1,1,0,100H50a50,50,0,0,0,0,100H666a50,50,0,0,0,0-100H557.54a50,50,0,0,1,0-100H618a50,50,0,0,0,0-100H481.55a50,50,0,0,1,0-100H714a50,50,0,0,0,0-100ZM1932,351v-2a49,49,0,0,0-49-49h-4a49,49,0,0,0-49,49v2a49,49,0,0,0,49,49h4A49,49,0,0,0,1932,351Zm578,149h-87a50,50,0,1,1,0-100h18a50,50,0,0,0,0-100H2271a50,50,0,0,1-.38-100H2414a50,50,0,0,0,0-100h-10a50,50,0,0,1-35.35-85.35A49.81,49.81,0,0,1,2404,0H2002.45a50,50,0,0,1,19,96.07,49.79,49.79,0,0,1-19.11,3.93H1930a50,50,0,0,0,0,100h148.45a50,50,0,0,1,0,100H2010a50,50,0,0,0,0,100h88.45a50,50,0,0,1,0,100H1945a50,50,0,0,0,0,100h565a50,50,0,0,0,0-100Z"/></svg>