<svg xmlns="http://www.w3.org/2000/svg" viewBox="0 0 1408 276"><defs><style>.cls-1{fill:#289b7f;}.cls-2{fill:#4ccb70;}.cls-3{fill:#fff;}.cls-4{fill:#fe6d58;}.cls-5{fill:#172b3d;}.cls-6{fill:#37b5e5;}.cls-7{fill:#fede4a;}.cls-8{fill:#9951e6;}.cls-9{fill:none;}.cls-10{fill:#37b6e5;}.cls-11{fill:#097c60;}</style></defs><path class="cls-1" d="M246.56,157.93l-3.42,2.76a4.14,4.14,0,1,1-5.3-6.35l.1-.09,3.41-2.76a4.14,4.14,0,0,1,5.31,6.36A.39.39,0,0,0,246.56,157.93Z"/><path class="cls-2" d="M313.94,151.77l-19.26-11.59L276.87,154.6l-13-16-43.28,35,13,16-17.82,14.42,7.33,21.25A15.5,15.5,0,0,0,253.21,219l-.69-8.64a13.47,13.47,0,0,1,5-11.54l23.43-19a13.5,13.5,0,0,1,12.32-2.44l8,2.37A15.81,15.81,0,0,0,318.63,174a15.51,15.51,0,0,0-3.77-21.6C314.56,152.16,314.25,152,313.94,151.77Z"/><path class="cls-1" d="M284.62,177.38a13.46,13.46,0,0,0-12.32,2.44l-23.42,19a13.49,13.49,0,0,0-4.95,11.54l.69,8.64a15.51,15.51,0,0,1-11.26,16.15A15.49,15.49,0,0,0,253.21,219l-.69-8.64a13.46,13.46,0,0,1,5-11.54l23.42-19a13.61,13.61,0,0,1,4.3-2.33Z"/><path class="cls-1" d="M313.93,151.77l-19.26-11.59-3.62,2.93,14.3,8.59A15.51,15.51,0,0,1,310.63,173c-.19.31-.39.62-.6.92a15.27,15.27,0,0,1-8.62,6,15.78,15.78,0,0,0,17.21-5.9,15.51,15.51,0,0,0-3.77-21.6C314.55,152.15,314.24,152,313.93,151.77Z"/><path class="cls-1" d="M206.68,165.1l5.14-4.16a6.22,6.22,0,0,1,8.76.92h0a6.23,6.23,0,0,1-.92,8.77l-5.14,4.16a6.23,6.23,0,0,1-8.76-.93h0A6.22,6.22,0,0,1,206.68,165.1Z"/><path class="cls-1" d="M253.33,127.33l5.14-4.16a6.23,6.23,0,0,1,8.76.93h0a6.23,6.23,0,0,1-.92,8.76L261.17,137a6.23,6.23,0,0,1-8.77-.92h0A6.24,6.24,0,0,1,253.33,127.33Z"/><circle class="cls-1" cx="228.65" cy="186.99" r="22.31"/><path class="cls-2" d="M243.77,205.66a24,24,0,1,1,3.55-33.78A24,24,0,0,1,243.77,205.66ZM215.69,171a20.6,20.6,0,1,0,29,3.05,20.6,20.6,0,0,0-29-3.05Z"/><circle class="cls-1" cx="275.3" cy="149.23" r="22.31"/><path class="cls-2" d="M290.41,167.89A24,24,0,1,1,294,134.12h0A24,24,0,0,1,290.41,167.89Zm-28.07-34.68a20.61,20.61,0,1,0,29,3,20.6,20.6,0,0,0-29-3Z"/><path class="cls-3" d="M238.05,179.39a1.7,1.7,0,0,0-2.4-.26l-6.74,5.46-5.46-6.74A1.71,1.71,0,1,0,220.8,180l5.45,6.74-6.74,5.45a1.71,1.71,0,0,0,2.15,2.66l6.74-5.46,5.46,6.74a1.7,1.7,0,0,0,2.4.25h0a1.71,1.71,0,0,0,.25-2.4l-5.46-6.74,6.74-5.45A1.7,1.7,0,0,0,238.05,179.39Z"/><circle class="cls-3" cx="268.77" cy="141.16" r="3.53"/><circle class="cls-4" cx="281.83" cy="157.29" r="3.53"/><circle class="cls-5" cx="283.37" cy="142.7" r="3.53"/><circle class="cls-6" cx="267.24" cy="155.76" r="3.53"/><path class="cls-5" d="M257.52,181.79,254,184.65a1.71,1.71,0,0,0,2.15,2.65l3.53-2.86a1.71,1.71,0,1,0-2.15-2.65Zm12.62-8a1.71,1.71,0,0,0-2.4-.25l-3.53,2.86a1.7,1.7,0,1,0,2.14,2.65l3.54-2.86A1.71,1.71,0,0,0,270.14,173.77Z"/><path class="cls-7" d="M440,247.09a4,4,0,0,1,2.84-4.89,4,4,0,0,1,2.05,0l21.28,5.64a4,4,0,0,1,1.8,6.7l-15.63,15.63a4,4,0,0,1-6.69-1.8Z"/><path class="cls-2" d="M931.3,99.12a2,2,0,0,1,2.31,1.63,2,2,0,0,1-.06,1l-6.1,19.13a2,2,0,0,1-2.51,1.3,2.11,2.11,0,0,1-.91-.59l-13.7-15.76a2,2,0,0,1,1.18-3.29Z"/><path class="cls-8" d="M1313.52,103a2,2,0,0,1,.07,2.83,2,2,0,0,1-.78.51l-13.45,4.74a2,2,0,0,1-2.55-1.22,2.09,2.09,0,0,1-.07-1.08l3.1-14.55a2,2,0,0,1,3.33-1Z"/><path class="cls-7" d="M1102.87,244.23a2,2,0,0,1,2.36-1.56,2.1,2.1,0,0,1,.84.4l6.61,5.23a2,2,0,0,1,.32,2.81,1.94,1.94,0,0,1-.88.64l-8.31,3a2,2,0,0,1-2.64-2.29Z"/><path class="cls-2" d="M187.62,68a2,2,0,0,1,0,2.83,2,2,0,0,1-.76.49l-11.33,4.13a2,2,0,0,1-2.56-1.2,2,2,0,0,1-.08-1.1l2.66-12.5a2,2,0,0,1,3.35-1Z"/><circle class="cls-9" cx="1214" cy="22" r="6"/><path class="cls-10" d="M1214,28a6,6,0,1,1,6-6A6,6,0,0,1,1214,28Zm0-10a4,4,0,1,0,4,4A4,4,0,0,0,1214,18Z"/><circle class="cls-2" cx="1220" cy="188" r="4"/><circle class="cls-9" cx="106" cy="142" r="10"/><path class="cls-8" d="M106,152a10,10,0,1,1,10-10A10,10,0,0,1,106,152Zm0-18a8,8,0,1,0,8,8A8,8,0,0,0,106,134Z"/><path class="cls-7" d="M412.57,157.18a3.86,3.86,0,1,1-5.43-.66,3.86,3.86,0,0,1,5.43.66Z"/><path class="cls-7" d="M455.25,123.81a3.86,3.86,0,1,1-5.42-.66h0a3.86,3.86,0,0,1,5.42.66Z"/><path class="cls-1" d="M405.06,148.22a22.14,22.14,0,0,1-6.92-5.85c-8.1-10.36-5.63-25.87,5.5-34.57s26.78-7.35,34.88,3a22.27,22.27,0,0,1,4,8.13l2.84-2.23a25.75,25.75,0,0,0-4.21-8c-9.25-11.83-27-13.43-39.58-3.58s-15.33,27.44-6.08,39.27a25.57,25.57,0,0,0,6.72,6Z"/><path class="cls-5" d="M427,158.5l.25-.73a3.52,3.52,0,0,0-1.69-3.94l-17.45-10.9a3.49,3.49,0,0,0-4.27.22l-.55.54a1.29,1.29,0,0,0,.16,1.84.9.9,0,0,0,.26.17L425,159a1.3,1.3,0,0,0,1.83-.25A1.4,1.4,0,0,0,427,158.5Z"/><path class="cls-1" d="M424,164l1.86-3a1.35,1.35,0,0,0-.57-1.82l-21.85-13.65a1.36,1.36,0,0,0-1.89.29l-1.87,3Z"/><path class="cls-2" d="M421.57,165.19,424,164l-24.32-15.18v2.71a7,7,0,0,0,3.46,5.82l11.67,7.29A7,7,0,0,0,421.57,165.19Z"/><path d="M423.69,152.63a3.51,3.51,0,0,1,1.68,3.94l-1.12,1.89s0,0,0,0l.8.5a1.31,1.31,0,0,0,1.83-.24.92.92,0,0,0,.16-.27l.25-.73a3.51,3.51,0,0,0-1.68-3.94Z"/><path class="cls-11" d="M421.7,162.55,424,164l1.86-3a1.35,1.35,0,0,0-.57-1.82l-1.08-.67Z"/><path class="cls-1" d="M419.7,165.75a5.86,5.86,0,0,0,1.87-.56L424,164l-2.31-1.44Z"/><path class="cls-5" d="M447.1,142.8l-.77.06a3.48,3.48,0,0,1-3.41-2.58l-6.37-19.57a3.51,3.51,0,0,1,1.24-4.09l.66-.41a1.32,1.32,0,0,1,1.75.61,1.45,1.45,0,0,1,.11.29L448.08,141a1.3,1.3,0,0,1-.69,1.71A1,1,0,0,1,447.1,142.8Z"/><path  class="cls-1" d="M453.16,141.2l-3.36,1.1a1.35,1.35,0,0,1-1.62-1l-8-24.5a1.36,1.36,0,0,1,.73-1.77l3.35-1.09Z"/><path class="cls-2" d="M454.91,139.13l-1.75,2.07-8.87-27.26,2.64.65a7.09,7.09,0,0,1,4.81,4.77L456,132.44A7.06,7.06,0,0,1,454.91,139.13Z"/><path class="cls-1" d="M455.14,129.89c.78,2.4,1,6.47-3.09,7.89.21.67,1.11,3.42,1.11,3.42l1.75-2.07a7.06,7.06,0,0,0,1.09-6.69Z"/><path class="cls-11" d="M447.48,139.28l.66,2a1.35,1.35,0,0,0,1.63,1l3.35-1.09L452,137.8Z"/><path d="M443.06,140.72a3.38,3.38,0,0,0,3.24,2.15l.77-.06a1.3,1.3,0,0,0,1.06-1.51,1.14,1.14,0,0,0-.09-.3l-.56-1.72Z"/><path class="cls-7" d="M394.84,119.94c1.69-1.32,2.63-5.38,9.69-10.9s11.73-5.9,13-6.85l-2.33-3.07c-1-1.24-8.89.81-14.33,5.07s-9.6,11.12-8.36,12.71Z"/><rect class="cls-11" x="965.87" y="202.91" width="32.24" height="60.79" rx="5.18" transform="translate(14.91 522.25) rotate(-30)"/><path class="cls-1" d="M985.57,207.27l-3.8-6.59a2,2,0,0,0-2.78-.74h0L954.6,214a2,2,0,0,0-.75,2.78h0l19.93,34.51Z"/><path class="cls-3" d="M1005,247.52l-22.18,12.81-24.16-41.84,22.19-12.8Z"/><path class="cls-7" d="M999.86,204.31l-28.4,16.39-3.14,5.45-13.48-23.36a3.25,3.25,0,0,1,1.19-4.45h0l30.29-17.49a3.25,3.25,0,0,1,4.45,1.19h0l10.28,17.82a3.26,3.26,0,0,1-1.19,4.45Z"/><path class="cls-3" d="M985.54,188.81l-.39-.68-5.11,3,.4.68Zm-8.73,4.13-13.89,8,.39.69,13.89-8Zm-3.13,7.6,14-8.07-.4-.68-14,8.07Zm-3.74,1.25L965,204.63l.39.68,4.92-2.84Zm11.32-1.65-14.12,8.15.4.68,14.11-8.15Zm10.23-1L969.26,212l.39.68,22.24-12.84Z"/><path class="cls-2" d="M965.89,264.41l28.4-16.4h6.29l-13.49-23.36a3.25,3.25,0,0,0-4.45-1.19h0L952.35,241a3.25,3.25,0,0,0-1.19,4.44h0l10.29,17.82a3.25,3.25,0,0,0,4.44,1.19Z"/><path class="cls-3" d="M970.41,242.92,984,235.08l-.39-.68L970,242.24Zm2.81-7.41-14,8.07.39.68,14-8.07Zm-6.55,8.66-5.32,3.07.4.68,5.32-3.07Zm12-2-15.21,8.78.39.68,15.22-8.78Zm9.14-.4-22.24,12.84.39.68,22.24-12.83Zm-5.43-.83,3.75-2.17-.39-.68L982,240.21Z"/><path class="cls-2" d="M1185.59,171.26s15.09-24.07,25.08-44.66l-56.46-33.92c-13,27.48-33.06,52.45-33.06,52.45a6.74,6.74,0,0,0,2.3,9.24l57.28,34.42c3.19,1.91,6.37.3,9.24-2.3l5.56-9.26Z"/><path class="cls-5" d="M1180.72,188.78a6.74,6.74,0,0,1-2.31-9.25l31.94-42.38,12.91,7.75L1190,186.47C1187.45,189.34,1183.91,190.7,1180.72,188.78Z"/><path class="cls-1" d="M1208.54,130.81l12.19,7.32s-32.21,44.29-35.17,46.83c-4.33,3.71-8-1.05-8-1.05a8.26,8.26,0,0,1,.94-4.7S1189.61,164.14,1208.54,130.81Z"/><path class="cls-1" d="M1135.28,138.21l44.09,26.49s3.52-5.29,7.62-12.11l-43.69-26.26C1139.5,132.65,1135.28,138.21,1135.28,138.21Zm18.5-29.41c-3.8,6.32-7.11,12.29-7.11,12.29l43.18,26.08s3.52-5.29,7.62-12.11Z"/></svg>